<?xml version="1.0" encoding="UTF-8" standalone="no"?>
<!-- Created with Inkscape (http://www.inkscape.org/) -->

<svg
   xmlns:dc="http://purl.org/dc/elements/1.1/"
   xmlns:cc="http://creativecommons.org/ns#"
   xmlns:rdf="http://www.w3.org/1999/02/22-rdf-syntax-ns#"
   xmlns:svg="http://www.w3.org/2000/svg"
   xmlns="http://www.w3.org/2000/svg"
   xmlns:sodipodi="http://sodipodi.sourceforge.net/DTD/sodipodi-0.dtd"
   xmlns:inkscape="http://www.inkscape.org/namespaces/inkscape"
   id="svg2211"
   sodipodi:version="0.32"
   inkscape:version="0.92.2 2405546, 2018-03-11"
   width="1250"
   height="2080"
   version="1.0"
   sodipodi:docname="Divisao_administrativa_Curitiba.svg"
   inkscape:output_extension="org.inkscape.output.svg.inkscape"
   sodipodi:modified="true">
  <metadata
     id="metadata2216">
    <rdf:RDF>
      <cc:Work
         rdf:about="">
        <dc:format>image/svg+xml</dc:format>
        <dc:type
           rdf:resource="http://purl.org/dc/dcmitype/StillImage" />
      </cc:Work>
    </rdf:RDF>
  </metadata>
  <defs
     id="defs2214" />
  <sodipodi:namedview
     inkscape:window-height="715"
     inkscape:window-width="1360"
     inkscape:pageshadow="2"
     inkscape:pageopacity="0.0"
     guidetolerance="10.0"
     gridtolerance="10.0"
     objecttolerance="10.0"
     borderopacity="1.0"
     bordercolor="#666666"
     pagecolor="#ffffff"
     id="base"
     showguides="true"
     inkscape:guide-bbox="true"
     inkscape:zoom="0.49615384"
     inkscape:cx="687.66768"
     inkscape:cy="1338.5753"
     inkscape:window-x="0"
     inkscape:window-y="25"
     inkscape:current-layer="svg2211"
     width="1250px"
     height="2080px"
     showgrid="false"
     inkscape:window-maximized="1" />
  <path
     style="font-size:22px;fill:#ffffff;fill-rule:evenodd;stroke:#000000;stroke-width:1.1421361px;stroke-linecap:butt;stroke-linejoin:miter;stroke-opacity:1"
     d="M 397.00889,1968.4977 L 400.22114,1962.6085 L 363.31587,1899.3627 L 357.46242,1874.1644 L 339.90208,1864.2064 L 327.01736,1834.9392 L 305.35246,1823.2323 L 295.96553,1807.4208 L 278.40519,1798.6406 L 263.16481,1805.6719 L 256.81168,1794.8216 L 245.39032,1813.0244 L 225.83124,1836.7594 L 218.37166,1886.1212 L 209.5558,1911.2481 L 209.5558,1941.9787 L 184.8571,1985.7725 L 185.78509,2036.5262 L 225.83124,2054.1936 L 245.85431,2069.1127 L 243.99834,2048.1617 L 257.95382,2040.7021 L 266.80537,2006.2596 L 286.82844,2021.607 L 295.21601,1988.5565 L 306.38752,2005.3316 L 333.40618,1988.5565 L 333.40618,1973.1733 L 368.77671,1972.2453 L 383.19618,1982.9528 L 396.72335,1968.0694 L 397.00889,1968.4977 z "
     id="path2227" />
  <path
     style="font-size:22px;fill:#ffffff;fill-rule:evenodd;stroke:#000000;stroke-width:1.1421361px;stroke-linecap:butt;stroke-linejoin:miter;stroke-opacity:1"
     d="M 562.01186,1863.9565 L 564.22475,1805.6719 L 554.83782,1792.7515 L 560.1202,1776.94 L 543.13092,1764.0554 L 536.67072,1695.5628 L 522.0371,1658.6576 L 528.4973,1639.9194 L 528.4973,1620.5745 L 533.74399,1607.1187 L 529.63944,1580.7425 L 485.73858,1573.1401 L 441.23097,1588.3805 L 401.39897,1632.8881 L 356.89135,1665.0821 L 321.73498,1655.1241 L 292.25359,1664.8323 L 294.28802,1691.03 L 289.14841,1710.1251 L 274.72894,1725.4725 L 266.34138,1743.1756 L 262.62943,1785.5418 L 256.81168,1794.8216 L 263.16481,1805.6719 L 278.40519,1798.6406 L 295.96553,1807.4208 L 305.35246,1823.2323 L 327.01736,1834.9392 L 339.90208,1864.2064 L 357.46242,1874.1644 L 363.31587,1899.3627 L 400.22114,1962.6085 L 397.00889,1968.4977 L 404.64692,1979.2409 L 439.55346,1978.7769 L 421.85035,1955.5059 L 439.55346,1932.6988 L 453.50893,1938.7308 L 475.38798,1915.4598 L 490.77112,1921.9913 L 505.65458,1910.3202 L 494.01907,1908.4642 L 493.55508,1894.5087 L 484.23953,1890.297 L 490.77112,1872.6297 L 498.69469,1884.7291 L 504.7266,1879.1256 L 509.40222,1888.9051 L 538.24115,1885.6571 L 548.48469,1866.5621 L 562.01186,1857.2465 L 562.01186,1863.9565 z "
     id="path2232" />
  <path
     style="font-size:22px;fill:#ffffff;fill-rule:evenodd;stroke:#000000;stroke-width:1.1421361px;stroke-linecap:butt;stroke-linejoin:miter;stroke-opacity:1"
     d="M 748.75111,1776.2262 L 736.93714,1706.5202 L 752.49875,1641.6326 L 743.96842,1616.4343 L 751.3923,1586.0249 L 738.79311,1568.6073 L 741.36292,1544.4797 L 717.27099,1532.9869 L 754.71164,1510.0015 L 742.50506,1488.515 L 697.24791,1452.9303 L 626.43547,1419.5586 L 595.66918,1413.2411 L 604.19951,1444.4 L 596.77563,1468.8488 L 607.55454,1481.8406 L 603.84259,1508.538 L 568.22223,1489.9783 L 549.69821,1526.7052 L 530.78158,1545.6218 L 528.9256,1580.6354 L 529.63944,1580.7425 L 533.74399,1607.1187 L 528.4973,1620.5745 L 528.4973,1639.9194 L 522.0371,1658.6576 L 536.67072,1695.5628 L 543.13092,1764.0554 L 560.1202,1776.94 L 554.83782,1792.7515 L 564.22475,1805.6719 L 562.01186,1863.9565 L 562.01186,1866.098 L 578.75129,1860.0662 L 598.31037,1868.418 L 608.55391,1855.3905 L 626.25702,1852.1426 L 641.14048,1855.3905 L 658.84359,1836.2955 L 695.17779,1850.2866 L 701.2097,1832.5835 L 710.98924,1849.8226 L 744.0398,1833.5115 L 746.39546,1817.2003 L 770.59447,1806.9568 L 750.1074,1792.0733 L 748.75111,1776.2262 z "
     id="path2237" />
  <path
     style="font-size:22px;fill:#ffffff;fill-rule:evenodd;stroke:#000000;stroke-width:1.1421361px;stroke-linecap:butt;stroke-linejoin:miter;stroke-opacity:1"
     d="M 930.31506,1525.9556 L 905.29514,1515.3195 L 901.44043,1449.9679 L 878.66909,1412.4202 L 812.74643,1488.1224 L 753.53381,1507.967 L 754.71164,1510.0015 L 717.27099,1532.9869 L 741.36292,1544.4797 L 738.79311,1568.6073 L 751.3923,1586.0249 L 743.96842,1616.4343 L 752.49875,1641.6326 L 736.93714,1706.5202 L 748.75111,1776.2262 L 748.71542,1775.7623 L 763.13489,1780.9019 L 833.44764,1728.2922 L 822.27612,1717.1206 L 843.69118,1712.909 L 842.76319,1695.2059 L 858.14634,1712.909 L 871.63782,1678.0025 L 893.05287,1669.1509 L 893.05287,1656.1235 L 912.14796,1639.8123 L 900.04845,1620.7173 L 889.80492,1628.6408 L 888.87694,1610.0097 L 904.68838,1604.4418 L 893.51686,1593.7343 L 910.75598,1576.9592 L 895.37283,1577.8872 L 886.98527,1561.112 L 903.2964,1558.3281 L 896.76481,1535.9851 L 909.82799,1536.449 L 930.31506,1525.9556 z "
     id="path2242" />
  <path
     style="font-size:22px;fill:#ffffff;fill-rule:evenodd;stroke:#000000;stroke-width:1.1421361px;stroke-linecap:butt;stroke-linejoin:miter;stroke-opacity:1"
     d="M 878.49063,1412.6344 L 865.57022,1367.8769 L 837.83773,1318.194 L 762.17121,1275.6494 L 751.03538,1290.8541 L 738.50758,1292.2104 L 731.76184,1306.0588 L 716.23593,1305.7018 L 596.63286,1388.1498 L 595.95472,1412.8128 L 596.20456,1413.3482 L 626.43547,1419.5586 L 697.24791,1452.9303 L 742.50506,1488.515 L 753.53381,1507.967 L 812.74643,1488.1224 L 878.49063,1412.6344 z "
     id="path2247" />
  <path
     style="font-size:22px;fill:#ffffff;fill-rule:evenodd;stroke:#000000;stroke-width:1.1421361px;stroke-linecap:butt;stroke-linejoin:miter;stroke-opacity:1"
     d="M 596.73994,1388.0784 L 568.54345,1389.7559 L 563.65368,1368.555 L 548.69884,1354.6352 L 510.08036,1506.3251 L 448.83331,1475.3447 L 368.13426,1469.7768 L 296.71506,1450.7888 L 297.99996,1457.2847 L 307.31551,1480.1274 L 295.21601,1512.25 L 294.75201,1549.0125 L 309.63547,1613.7573 L 290.54039,1642.5963 L 292.25359,1664.8323 L 321.73498,1655.1241 L 356.89135,1665.0821 L 401.39897,1632.8881 L 441.23097,1588.3805 L 485.73858,1573.1401 L 528.9256,1580.6354 L 530.78158,1545.6218 L 549.69821,1526.7052 L 568.22223,1489.9783 L 603.84259,1508.538 L 607.55454,1481.8406 L 596.77563,1468.8488 L 604.19951,1444.4 L 595.66918,1413.2411 L 596.20456,1413.3482 L 595.95472,1412.8128 L 596.63286,1388.1498 L 596.73994,1388.0784 z "
     id="path2252" />
  <path
     style="font-size:22px;fill:#ffffff;fill-rule:evenodd;stroke:#000000;stroke-width:1.1421361px;stroke-linecap:butt;stroke-linejoin:miter;stroke-opacity:1"
     d="M 1051.4528,1284.9292 L 1030.6089,1284.3938 L 1002.1982,1260.052 L 989.31353,1260.052 L 970.50397,1219.8631 L 877.20573,1258.9456 L 856.18329,1218.7567 L 818.56418,1223.932 L 841.04999,1277.7551 L 823.73949,1273.3294 L 805.28685,1288.8196 L 811.31876,1303.2748 L 837.83773,1318.194 L 865.57022,1367.8769 L 878.49063,1412.6344 L 878.66909,1412.4202 L 901.44043,1449.9679 L 905.29514,1515.3195 L 930.31506,1525.9556 L 948.91046,1516.426 L 954.97806,1505.2544 C 954.97806,1505.2543 966.60711,1518.7523 968.46954,1516.8899 C 970.33196,1515.0274 990.81258,1508.0384 990.81258,1508.0384 L 1008.0517,1517.8179 L 1022.0428,1507.1104 L 1025.7548,1473.1318 L 999.20014,1457.2847 L 1015.5112,1444.2572 L 1029.4667,1427.0181 L 1017.3672,1416.3105 L 1013.6553,1393.0395 L 996.41619,1387.0077 L 1011.2996,1373.0165 L 1001.0561,1352.0654 L 1009.9076,1312.0192 L 1031.7867,1334.8263 L 1026.6828,1314.3392 L 1040.6382,1316.2308 L 1054.6294,1305.9874 L 1056.4854,1289.2122 L 1051.4528,1284.9292 z "
     id="path2257" />
  <path
     style="font-size:22px;fill:#ffffff;fill-rule:evenodd;stroke:#000000;stroke-width:1.1421361px;stroke-linecap:butt;stroke-linejoin:miter;stroke-opacity:1"
     d="M 762.09983,1275.7564 L 750.39293,1247.9168 L 723.2672,1250.4866 L 627.36346,1180.4594 L 644.35273,1157.5453 L 613.80059,1143.5541 L 595.13381,1149.9073 L 592.17139,1222.4686 L 473.78185,1226.2876 L 434.34246,1241.5637 L 444.08631,1258.5173 L 455.54336,1267.4403 L 456.82826,1286.107 L 471.67603,1291.6393 L 508.58131,1331.5069 L 527.67639,1337.4317 L 543.38076,1309.8777 L 557.80023,1311.9836 L 548.05638,1354.8493 L 548.02069,1357.2407 L 548.69884,1354.6352 L 563.65368,1368.555 L 568.54345,1389.7559 L 596.73994,1388.0784 L 716.23593,1305.7018 L 731.76184,1306.0588 L 738.50758,1292.2104 L 751.03538,1290.8541 L 762.09983,1275.7564 z "
     id="path2267" />
  <path
     style="font-size:22px;fill:#ffffff;fill-rule:evenodd;stroke:#000000;stroke-width:1.1421361px;stroke-linecap:butt;stroke-linejoin:miter;stroke-opacity:1"
     d="M 644.03151,1157.4025 L 695.28487,1082.9852 L 680.11587,1076.7035 L 662.02015,1074.4549 L 632.78861,1078.5238 L 610.94525,1079.6302 L 553.6243,1101.1167 L 505.54751,1100.724 L 488.16562,1114.0371 L 512.57878,1136.5943 L 508.11731,1181.3517 L 474.45999,1225.7523 L 475.92335,1226.2162 L 592.17139,1222.4686 L 595.13381,1149.9073 L 613.80059,1143.5541 L 644.03151,1157.4025 z "
     id="path2274" />
  <path
     style="font-size:22px;fill:#ffffff;fill-rule:evenodd;stroke:#000000;stroke-width:1.1421361px;stroke-linecap:butt;stroke-linejoin:miter;stroke-opacity:1"
     d="M 627.50623,1180.5665 L 633.89505,1172.1075 L 638.32083,1165.6473 L 627.36346,1180.4594 L 627.50623,1180.5665 z "
     id="path2272" />
  <path
     style="font-size:22px;fill:#ffffff;fill-rule:evenodd;stroke:#000000;stroke-width:1.1421361px;stroke-linecap:butt;stroke-linejoin:miter;stroke-opacity:1"
     d="M 852.43566,1219.2564 L 808.39203,1133.5605 L 816.27991,1123.3526 L 782.83674,1049.5064 L 771.70091,1041.6185 L 762.42105,1051.8263 L 745.25332,1015.1709 L 723.87396,1041.1545 L 694.67811,1082.7354 L 695.28487,1082.9852 L 644.03151,1157.4025 L 644.35273,1157.5453 L 638.32083,1165.6473 L 633.89505,1172.1075 L 627.50623,1180.5665 L 723.2672,1250.4866 L 750.39293,1247.9168 L 762.09983,1275.7564 L 762.17121,1275.6494 L 811.31876,1303.2748 L 805.28685,1288.8196 L 823.73949,1273.3294 L 841.04999,1277.7551 L 818.56418,1223.932 L 852.43566,1219.2564 z "
     id="path2279" />
  <path
     style="font-size:22px;fill:#ffffff;fill-rule:evenodd;stroke:#000000;stroke-width:1.1421361px;stroke-linecap:butt;stroke-linejoin:miter;stroke-opacity:1"
     d="M 1101.9924,1206.3716 L 919.35769,979.15798 L 782.26567,1049.0781 L 782.83674,1049.5064 L 816.27991,1123.3526 L 808.39203,1133.5605 L 852.43566,1219.2564 L 856.18329,1218.7567 L 877.20573,1258.9456 L 970.50397,1219.8631 L 989.31353,1260.052 L 1002.1982,1260.052 L 1030.6089,1284.3938 L 1051.4528,1284.9292 L 1040.6382,1275.7208 L 1043.9219,1233.3546 L 1054.1654,1224.039 L 1062.9813,1230.071 L 1069.0489,1218.4354 L 1086.288,1221.6834 L 1101.9924,1206.3716 z "
     id="path2284" />
  <path
     style="font-size:22px;fill:#ffffff;fill-rule:evenodd;stroke:#000000;stroke-width:1.1421361px;stroke-linecap:butt;stroke-linejoin:miter;stroke-opacity:1"
     d="M 919.28631,979.19367 L 906.82989,953.92391 L 836.41006,871.54734 L 823.06134,896.85279 L 824.45332,900.06505 L 797.2919,942.85946 L 745.28901,1015.1352 L 745.3247,1015.3137 L 762.42105,1051.8263 L 771.70091,1041.6185 L 782.26567,1049.0781 L 919.28631,979.19367 z "
     id="path2289" />
  <path
     style="font-size:22px;fill:#ffffff;fill-rule:evenodd;stroke:#000000;stroke-width:1.1421361px;stroke-linecap:butt;stroke-linejoin:miter;stroke-opacity:1"
     d="M 1210.1741,992.79222 L 1179.9432,989.04459 L 1104.6336,948.35599 L 1063.3739,890.07136 L 991.38365,910.41566 L 973.78762,923.05054 L 938.59555,880.18474 L 933.63439,901.63549 L 906.25882,953.24576 L 906.82989,953.92391 L 919.28631,979.19367 L 919.35769,979.15798 L 1101.9924,1206.3716 L 1103.9554,1204.48 L 1100.2435,1182.1369 L 1106.7751,1168.1458 L 1124.4425,1178.3893 L 1124.4425,1197.4844 L 1138.4336,1189.0968 L 1135.15,1144.8747 L 1154.2451,1147.1947 L 1155.1731,1132.3112 L 1167.3083,1122.5317 L 1156.1368,1109.9682 L 1165.4167,1102.9726 L 1171.9482,1061.5345 L 1179.4078,1071.778 L 1192.8993,1061.0705 L 1182.1918,1039.1915 L 1178.4798,1023.3443 L 1193.8273,1018.2404 L 1210.1741,992.79222 z "
     id="path2294" />
  <path
     style="font-size:22px;fill:#ffffff;fill-rule:evenodd;stroke:#000000;stroke-width:1.1421361px;stroke-linecap:butt;stroke-linejoin:miter;stroke-opacity:1"
     d="M 227.2946,1040.2622 L 225.65278,1055.0029 L 198.3129,1066.6741 L 124.85927,1033.5165 L 93.52191,1058.6078 L 77.817538,1055.6454 L 79.637818,1074.098 L 107.12047,1084.3415 L 121.53993,1111.3602 L 119.21997,1134.1672 L 111.76039,1150.9423 L 116.90001,1164.4338 L 108.97644,1180.7093 L 117.364,1196.5564 L 109.90442,1217.9715 L 126.64386,1235.2106 L 152.73453,1248.702 L 193.24467,1248.702 L 220.72732,1260.3376 L 260.27378,1252.414 L 275.40708,1231.8199 L 255.91939,1223.1111 L 240.78608,1182.7794 L 262.09406,1167.1107 L 265.44908,1130.1697 L 264.30695,1112.7879 L 248.0672,1099.3678 L 227.2946,1040.2622 z "
     id="path2325" />
  <path
     style="font-size:22px;fill:#ffffff;fill-rule:evenodd;stroke:#000000;stroke-width:1.1421361px;stroke-linecap:butt;stroke-linejoin:miter;stroke-opacity:1"
     d="M 106.62078,768.43386 L 92.165623,768.79078 L 79.637818,761.61674 L 60.364271,767.89849 L 52.297935,759.36816 L 20.603658,759.36816 L 29.348137,777.49957 L 47.51524,788.67109 L 39.591671,801.73427 L 59.150751,814.76176 L 52.61916,821.75734 L 54.974816,837.56879 L 55.902802,863.19547 L 36.343721,895.78204 L 38.199692,914.41313 L 55.902802,916.26911 L 47.051247,919.51706 L 41.911634,958.17122 L 60.078737,971.19871 L 47.979233,986.58186 L 44.231598,1001.9293 L 47.979233,1024.2723 L 61.006722,1033.5879 L 75.925875,1036.3718 L 77.817538,1055.6454 L 93.52191,1058.6078 L 124.85927,1033.5165 L 198.3129,1066.6741 L 225.65278,1055.0029 L 227.2946,1040.2622 L 226.79491,1038.8702 L 225.1174,984.54743 L 202.16761,977.26631 L 197.13507,952.639 L 187.0343,943.1093 L 180.32425,899.4226 L 159.58734,884.32499 L 132.17608,886.0025 L 114.22313,859.66199 L 106.62078,768.43386 z "
     id="path2330" />
  <path
     style="font-size:22px;fill:#ffffff;fill-rule:evenodd;stroke:#000000;stroke-width:1.1421361px;stroke-linecap:butt;stroke-linejoin:miter;stroke-opacity:1"
     d="M 100.9101,685.66469 L 100.44611,684.91516 L 71.428714,671.45937 L 58.365533,656.68299 L 35.09451,656.86144 L 14.892977,668.06865 L 15.856655,669.96032 L 13.037006,698.83495 L 25.172202,712.32643 L 22.816547,729.10155 L 31.668101,734.20547 L 18.640611,737.45342 L 16.320647,750.5166 L 20.603658,759.36816 L 52.297935,759.36816 L 60.364271,767.89849 L 79.637818,761.61674 L 92.165623,768.79078 L 106.62078,768.43386 L 99.660891,684.95085 L 100.9101,685.66469 z "
     id="path2335" />
  <path
     style="font-size:22px;fill:#ffffff;fill-rule:evenodd;stroke:#000000;stroke-width:1.1421361px;stroke-linecap:butt;stroke-linejoin:miter;stroke-opacity:1"
     d="M 506.15427,1100.724 L 505.69027,1099.9031 L 437.91163,1037.1927 L 433.45017,1029.9116 L 425.02691,1037.7638 L 411.03574,1030.4827 L 401.50605,1063.4975 L 380.80483,1064.6397 L 370.73976,1055.11 L 354.46432,1057.9296 L 334.86954,1046.1514 L 329.26594,1014.7783 L 344.39924,982.29885 L 361.21006,967.20124 L 346.07675,959.34905 L 342.15066,945.35788 L 328.15949,936.39925 L 311.91975,883.75392 L 311.91975,848.45478 L 296.78644,825.50498 L 297.92858,797.52264 L 258.16797,777.92787 L 263.2005,754.40701 L 274.94309,738.70263 L 260.41655,725.28254 L 256.49045,705.11669 L 220.08487,675.99222 L 108.65521,689.98339 L 99.660891,684.95085 L 114.22313,859.66199 L 132.17608,886.0025 L 159.58734,884.32499 L 180.32425,899.4226 L 187.0343,943.1093 L 197.13507,952.639 L 202.16761,977.26631 L 225.1174,984.54743 L 226.79491,1038.8702 L 248.0672,1099.3678 L 264.30695,1112.7879 L 265.44908,1130.1697 L 262.09406,1167.1107 L 240.78608,1182.7794 L 255.91939,1223.1111 L 275.40708,1231.8199 L 275.65692,1231.4629 L 315.70307,1216.5795 L 330.58653,1226.359 L 317.55904,1238.9225 L 318.95102,1275.7208 L 300.78392,1323.1908 L 303.60357,1366.5206 L 286.82844,1401.4271 L 296.71506,1450.7888 L 368.13426,1469.7768 L 448.83331,1475.3447 L 510.08036,1506.3251 L 548.02069,1357.2407 L 548.05638,1354.8493 L 557.80023,1311.9836 L 543.38076,1309.8777 L 527.67639,1337.4317 L 508.58131,1331.5069 L 471.67603,1291.6393 L 456.82826,1286.107 L 455.54336,1267.4403 L 444.08631,1258.5173 L 434.34246,1241.5637 L 473.78185,1226.2876 L 475.92335,1226.2162 L 474.45999,1225.7523 L 508.11731,1181.3517 L 512.57878,1136.5943 L 488.16562,1114.0371 L 505.54751,1100.724 L 506.15427,1100.724 z "
     id="path2320" />
  <path
     style="font-size:22px;fill:#ffffff;fill-rule:evenodd;stroke:#000000;stroke-width:1.1421361px;stroke-linecap:butt;stroke-linejoin:miter;stroke-opacity:1"
     d="M 256.2763,704.93824 L 319.0581,704.93824 L 313.02619,696.72913 L 341.93651,677.74112 L 272.44467,674.31471 L 265.55616,649.29479 L 268.58996,646.26099 L 256.91875,623.81088 L 243.10605,627.70128 L 232.75544,623.38258 L 164.58419,624.23918 L 157.26738,597.93436 L 124.03836,597.50606 L 76.63971,532.4043 L 73.57022,549.82188 L 71.678557,565.7404 L 44.731283,595.93562 L 47.979233,608.96311 L 32.132094,615.4947 L 26.100188,623.84657 L 32.596087,629.45018 L 32.596087,639.69371 L 28.884145,647.15329 L 18.640611,645.72562 L 9.3250638,656.93283 L 14.892977,668.06865 L 35.09451,656.86144 L 58.365533,656.68299 L 71.428714,671.45937 L 100.44611,684.91516 L 100.9101,685.66469 L 108.65521,689.98339 L 220.08487,675.99222 L 256.2763,704.93824 z "
     id="path2340" />
  <path
     style="font-size:22px;fill:#ffffff;fill-rule:evenodd;stroke:#000000;stroke-width:1.1421361px;stroke-linecap:butt;stroke-linejoin:miter;stroke-opacity:1"
     d="M 157.55291,598.89804 L 188.06936,528.62098 L 221.26269,534.97411 L 234.93263,528.12129 L 238.35904,517.87776 L 233.96896,499.81773 L 248.60258,489.07451 L 269.58933,492.00124 L 269.58933,467.58808 L 288.64872,466.6244 L 309.63547,426.07857 L 311.09884,353.83846 L 322.34174,336.24243 L 327.6955,316.21936 L 336.97536,308.43855 L 314.52524,309.90191 L 298.42826,299.1587 L 274.97878,299.62269 L 267.16229,295.2326 L 253.09974,301.79989 L 253.31389,302.58511 L 237.46675,317.04027 L 231.89884,333.3157 L 218.83565,338.45532 L 209.09181,354.73076 L 186.71308,361.72634 L 175.54156,391.06496 L 161.58608,408.73238 L 150.87856,439.96266 L 94.985271,457.16609 L 94.985271,488.82467 L 88.02538,496.28425 L 97.340927,514.91534 L 93.1293,523.3029 L 76.853861,531.19078 L 76.63971,532.4043 L 124.03836,597.50606 L 157.26738,597.93436 L 157.55291,598.89804 z "
     id="path2345" />
  <path
     style="font-size:22px;fill:#ffffff;fill-rule:evenodd;stroke:#000000;stroke-width:1.1421361px;stroke-linecap:butt;stroke-linejoin:miter;stroke-opacity:1"
     d="M 335.22646,309.90191 L 336.51136,309.40223 L 344.79185,296.23197 L 355.53507,291.8062 L 365.7786,275.70922 L 382.44665,263.07433 L 382.26819,263.00295 L 355.28523,203.43341 L 325.48261,175.48677 L 299.39194,160.10362 L 285.43647,171.73914 L 283.58049,186.1943 L 278.90487,198.2938 L 285.90046,207.14536 L 277.97689,214.14094 L 275.65692,232.73634 L 269.12533,239.26793 L 261.70145,269.07055 L 248.63827,284.882 L 253.09974,301.79989 L 267.16229,295.2326 L 274.97878,299.62269 L 298.42826,299.1587 L 314.52524,309.90191 L 336.97536,308.43855 L 335.22646,309.90191 z "
     id="path2350" />
  <path
     style="font-size:22px;fill:#ffffff;fill-rule:evenodd;stroke:#000000;stroke-width:1.1421361px;stroke-linecap:butt;stroke-linejoin:miter;stroke-opacity:1"
     d="M 268.26873,645.61854 L 279.58302,635.94608 L 298.89226,635.94608 L 313.59726,640.51462 L 314.98924,625.34563 L 331.08622,611.56861 L 312.66927,580.76663 L 309.92101,566.06162 L 317.7375,557.31714 L 316.38122,532.51138 L 303.49649,537.11561 L 298.89226,524.23089 L 284.65125,524.23089 L 269.58933,491.39448 L 269.58933,492.00124 L 248.60258,489.07451 L 233.96896,499.81773 L 238.35904,517.87776 L 234.93263,528.12129 L 221.26269,534.97411 L 188.06936,528.62098 L 157.55291,598.89804 L 164.58419,624.23918 L 232.75544,623.38258 L 243.10605,627.70128 L 256.91875,623.81088 L 268.26873,645.61854 z "
     id="path2357" />
  <path
     style="font-size:22px;fill:#ffffff;fill-rule:evenodd;stroke:#000000;stroke-width:1.1421361px;stroke-linecap:butt;stroke-linejoin:miter;stroke-opacity:1"
     d="M 714.95102,1053.8965 L 659.45035,1012.8153 L 661.23493,979.30074 L 649.17112,959.20629 L 634.43043,970.3778 L 610.76679,980.65703 L 586.63917,980.19304 L 562.51154,996.71832 L 525.85611,996.71832 L 508.43854,1008.3538 L 486.5238,1008.3538 L 455.25783,1019.0613 L 438.51839,1037.7281 L 505.69027,1099.9031 L 506.15427,1100.724 L 553.6243,1101.1167 L 610.94525,1079.6302 L 632.78861,1078.5238 L 662.02015,1074.4549 L 680.11587,1076.7035 L 694.67811,1082.7354 L 714.95102,1053.8965 z "
     id="path2367" />
  <path
     style="font-size:22px;fill:#ffffff;fill-rule:evenodd;stroke:#000000;stroke-width:1.1421361px;stroke-linecap:butt;stroke-linejoin:miter;stroke-opacity:1"
     d="M 816.24422,913.02116 L 761.13615,925.12066 L 672.22799,1022.2736 L 714.95102,1053.8965 L 723.87396,1041.1545 L 745.25332,1015.1709 L 745.3247,1015.3137 L 745.28901,1015.1352 L 797.2919,942.85946 L 816.24422,913.02116 z "
     id="path2395" />
  <path
     style="font-size:22px;fill:#ffffff;fill-rule:evenodd;stroke:#000000;stroke-width:1.1421361px;stroke-linecap:butt;stroke-linejoin:miter;stroke-opacity:1"
     d="M 760.81492,925.47758 L 760.77923,925.44189 L 647.63638,959.31336 L 647.35084,960.59826 L 649.17112,959.20629 L 661.23493,979.30074 L 659.45035,1012.8153 L 672.22799,1022.2736 L 760.81492,925.47758 z "
     id="path2400" />
  <path
     style="font-size:22px;fill:#ffffff;fill-rule:evenodd;stroke:#000000;stroke-width:1.1421361px;stroke-linecap:butt;stroke-linejoin:miter;stroke-opacity:1"
     d="M 360.81745,967.55816 L 361.85251,967.344 L 381.16175,948.49876 L 412.42772,927.36924 L 425.77644,911.27226 L 438.62547,851.95257 L 469.89145,813.83377 L 459.79068,783.92409 L 456.11443,766.00683 L 435.41321,759.11832 L 415.17599,765.54283 L 404.61123,761.40259 L 383.9457,759.11832 L 371.98897,764.18655 L 365.99275,761.86658 L 349.00348,749.48154 L 346.68351,725.56807 L 318.37995,704.93824 L 256.2763,704.93824 L 256.49045,705.11669 L 260.41655,725.28254 L 274.94309,738.70263 L 263.2005,754.40701 L 258.16797,777.92787 L 297.92858,797.52264 L 296.78644,825.50498 L 311.91975,848.45478 L 311.91975,883.75392 L 328.15949,936.39925 L 342.15066,945.35788 L 346.07675,959.34905 L 361.21006,967.20124 L 360.81745,967.55816 z "
     id="path2362" />
  <path
     style="font-size:22px;fill:#ffffff;fill-rule:evenodd;stroke:#000000;stroke-width:1.1421361px;stroke-linecap:butt;stroke-linejoin:miter;stroke-opacity:1"
     d="M 485.73858,1008.6037 L 483.88261,980.19304 L 447.83394,963.9176 L 437.30488,924.37113 L 414.53354,924.83513 L 412.42772,927.36924 L 381.16175,948.49876 L 361.85251,967.344 L 360.81745,967.55816 L 344.39924,982.29885 L 329.26594,1014.7783 L 334.86954,1046.1514 L 354.46432,1057.9297 L 370.73976,1055.11 L 380.80483,1064.6397 L 401.50605,1063.4976 L 411.03575,1030.4827 L 425.02691,1037.7638 L 433.45017,1029.9116 L 437.91164,1037.1928 L 438.5184,1037.7281 L 455.25783,1019.0614 L 485.73858,1008.6037 z "
     id="path2390" />
  <path
     style="font-size:22px;fill:#ffffff;fill-rule:evenodd;stroke:#000000;stroke-width:1.1421361px;stroke-linecap:butt;stroke-linejoin:miter;stroke-opacity:1"
     d="M 647.81484,959.27767 L 633.2526,928.22584 L 604.41366,880.7915 L 605.80564,864.48037 L 540.66819,852.88055 L 541.13219,881.71949 L 518.82484,890.53535 L 485.77428,888.67938 L 445.29983,911.02242 L 435.4489,924.40683 L 437.30488,924.37113 L 447.83394,963.9176 L 483.88261,980.19304 L 485.73858,1008.6037 L 486.5238,1008.3538 L 508.43854,1008.3538 L 525.85612,996.71832 L 562.51155,996.71832 L 586.63917,980.19304 L 610.7668,980.65703 L 634.43043,970.3778 L 647.35084,960.59826 L 647.63638,959.31336 L 647.81484,959.27767 z "
     id="path2405" />
  <path
     style="font-size:22px;fill:#ffffff;fill-rule:evenodd;stroke:#000000;stroke-width:1.1421361px;stroke-linecap:butt;stroke-linejoin:miter;stroke-opacity:1"
     d="M 540.66819,853.34455 L 540.38266,853.05901 L 530.6745,839.60322 L 526.60564,824.25577 L 519.71713,822.07857 L 516.29073,819.90137 L 500.62205,823.32778 L 488.41547,812.69164 L 469.71299,814.04793 L 438.62547,851.95257 L 425.77644,911.27226 L 414.53354,924.83513 L 435.4489,924.40683 L 445.29983,911.02242 L 485.77428,888.67938 L 518.82484,890.53535 L 541.13219,881.71949 L 540.66819,853.34455 z "
     id="path2410" />
  <path
     style="font-size:22px;fill:#ffffff;fill-rule:evenodd;stroke:#000000;stroke-width:1.1421361px;stroke-linecap:butt;stroke-linejoin:miter;stroke-opacity:1"
     d="M 331.01483,611.63999 L 354.1074,605.5367 L 376.55751,614.13842 L 397.08027,603.60935 L 429.06008,618.88542 L 430.02376,609.35572 L 435.27044,608.39204 L 434.80645,574.02089 L 447.22718,563.52751 L 449.61853,552.53445 L 441.48081,548.21575 L 450.54652,522.91029 L 466.78626,522.91029 L 464.39492,485.18411 L 473.96031,478.50975 L 460.1119,460.84234 L 442.44449,447.49362 L 430.48775,430.2902 L 434.80645,405.44874 L 417.60303,383.03432 L 416.17536,370.1139 L 476.92272,353.08894 L 475.85197,352.87479 L 428.38194,308.18871 L 426.06197,292.80557 L 399.50731,268.60656 L 382.44665,263.07433 L 365.7786,275.70922 L 355.53507,291.8062 L 344.79185,296.23197 L 336.51136,309.40223 L 335.22646,309.90191 L 327.6955,316.21936 L 322.34174,336.24243 L 311.09884,353.83846 L 309.63547,426.07857 L 288.64872,466.6244 L 269.58933,467.58808 L 269.58933,491.39448 L 284.65125,524.23089 L 298.89226,524.23089 L 303.49649,537.11561 L 316.38122,532.51138 L 317.7375,557.31714 L 309.92101,566.06162 L 312.66927,580.76663 L 331.08622,611.56861 L 331.01483,611.63999 z "
     id="path2415" />
  <path
     style="font-size:22px;fill:#ffffff;fill-rule:evenodd;stroke:#000000;stroke-width:1.1421361px;stroke-linecap:butt;stroke-linejoin:miter;stroke-opacity:1"
     d="M 473.49631,478.83098 L 498.83746,493.10768 L 523.17923,489.89542 L 523.17923,481.18664 L 532.35201,471.08587 L 533.74399,462.34139 L 528.67576,452.70462 L 527.31948,446.7441 L 518.575,438.46361 L 518.111,425.15059 L 509.86621,414.12183 L 509.86621,403.55707 L 514.00645,392.56401 L 512.22186,370.22098 L 511.72218,370.1139 L 508.47423,359.40638 L 476.92272,353.08894 L 416.17536,370.1139 L 417.60303,383.03432 L 434.80645,405.44874 L 430.48775,430.2902 L 442.44449,447.49362 L 460.1119,460.84234 L 473.96031,478.50975 L 473.49631,478.83098 z "
     id="path2420" />
  <path
     style="font-size:22px;fill:#ffffff;fill-rule:evenodd;stroke:#000000;stroke-width:1.1421361px;stroke-linecap:butt;stroke-linejoin:miter;stroke-opacity:1"
     d="M 605.44872,868.83477 L 613.44368,808.944 L 593.70614,813.7267 L 582.96292,799.98537 L 525.10659,823.79177 L 526.60564,824.25577 L 530.6745,839.60322 L 540.38266,853.05901 L 540.66819,853.34455 L 540.66819,852.88055 L 605.80564,864.48037 L 605.44872,868.83477 z "
     id="path2425" />
  <path
     style="font-size:22px;fill:#ffffff;fill-rule:evenodd;stroke:#000000;stroke-width:1.1421361px;stroke-linecap:butt;stroke-linejoin:miter;stroke-opacity:1"
     d="M 584.03367,801.37735 L 583.81952,799.12877 L 573.75445,784.85207 L 575.86026,774.787 L 559.04944,737.41773 L 546.87856,747.0545 L 504.44106,762.61611 L 480.06359,757.15527 L 475.45936,745.37699 L 446.47766,752.51534 L 448.72624,763.54409 L 456.11443,766.00683 L 459.79068,783.92409 L 469.89145,813.83377 L 469.71299,814.04793 L 488.41547,812.69164 L 500.62204,823.32778 L 516.29072,819.90137 L 519.71713,822.07857 L 525.10659,823.79177 L 582.96292,799.98537 L 584.03367,801.37735 z "
     id="path2430" />
  <path
     style="font-size:22px;fill:#ffffff;fill-rule:evenodd;stroke:#000000;stroke-width:1.1421361px;stroke-linecap:butt;stroke-linejoin:miter;stroke-opacity:1"
     d="M 450.29667,751.58736 L 443.19401,721.82044 L 462.89586,703.26072 L 465.92966,674.45748 L 433.34309,666.49822 L 418.92362,673.31534 L 346.89766,675.56392 L 341.57959,677.74112 L 341.93651,677.74112 L 313.02619,696.72913 L 319.0581,704.93824 L 318.37995,704.93824 L 346.68351,725.56807 L 349.00348,749.48154 L 365.99275,761.86658 L 371.98897,764.18655 L 383.9457,759.11832 L 404.61123,761.40259 L 415.17599,765.54283 L 435.41321,759.11832 L 448.72624,763.54409 L 446.47766,752.51534 L 450.29667,751.58736 z "
     id="path2435" />
  <path
     style="font-size:22px;fill:#ffffff;fill-rule:evenodd;stroke:#000000;stroke-width:1.1421361px;stroke-linecap:butt;stroke-linejoin:miter;stroke-opacity:1"
     d="M 558.58545,737.77465 L 558.05008,721.9632 L 510.68712,700.51246 L 499.47991,687.05667 L 465.85828,675.20701 L 462.89586,703.26072 L 443.19401,721.82044 L 450.29667,751.58736 L 475.45936,745.37699 L 480.06359,757.15527 L 504.44106,762.61611 L 546.87856,747.0545 L 558.58545,737.77465 z "
     id="path2440" />
  <path
     style="font-size:22px;fill:#ffffff;fill-rule:evenodd;stroke:#000000;stroke-width:1.1421361px;stroke-linecap:butt;stroke-linejoin:miter;stroke-opacity:1"
     d="M 465.89397,674.85009 L 494.94706,674.56455 L 511.04404,660.0737 L 515.46981,638.73003 L 506.22565,618.99249 L 470.39113,617.77897 L 435.27044,607.96374 L 435.27044,608.39204 L 430.02376,609.35572 L 429.06008,618.88542 L 397.08027,603.60935 L 376.55751,614.13842 L 354.1074,605.5367 L 331.01483,611.63999 L 314.98924,625.34563 L 313.59726,640.51462 L 298.89226,635.94608 L 279.58302,635.94608 L 268.26873,645.61854 L 268.58996,646.26099 L 265.55616,649.29479 L 272.44467,674.31471 L 341.57959,677.74112 L 346.89766,675.56392 L 418.92362,673.31534 L 433.34309,666.49822 L 465.92966,674.45748 L 465.89397,674.85009 z "
     id="path2445" />
  <path
     style="font-size:22px;fill:#ffffff;fill-rule:evenodd;stroke:#000000;stroke-width:1.1421361px;stroke-linecap:butt;stroke-linejoin:miter;stroke-opacity:1"
     d="M 504.2983,618.92111 L 505.26197,618.5285 L 490.8425,590.08217 L 499.12299,560.20818 L 490.48559,549.03666 L 503.47738,534.29596 L 504.19122,512.30984 L 518.21808,506.56347 L 523.60753,499.35374 L 525.0709,491.07325 L 523.17923,489.5742 L 523.17923,489.89542 L 498.83746,493.10768 L 473.49631,478.83098 L 464.39492,485.18411 L 466.78626,522.91029 L 450.54652,522.91029 L 441.48081,548.21575 L 449.61853,552.53445 L 447.22718,563.52751 L 434.80645,574.02089 L 435.27044,607.96374 L 470.39113,617.77897 L 504.2983,618.92111 z "
     id="path2450" />
  <path
     style="font-size:22px;fill:#ffffff;fill-rule:evenodd;stroke:#000000;stroke-width:1.1421361px;stroke-linecap:butt;stroke-linejoin:miter;stroke-opacity:1"
     d="M 527.60501,447.99331 L 562.11894,455.34581 L 583.28414,478.68821 L 601.95093,486.57609 L 617.76238,475.79718 L 633.89505,476.54671 L 636.03656,472.58492 L 673.72705,472.94184 L 689.18158,466.48163 L 693.46459,456.05964 L 695.9987,439.21314 L 707.45575,396.49011 L 709.27603,379.28668 L 661.16355,366.36627 L 657.23746,337.99132 L 627.43484,340.16852 L 614.87135,319.36023 L 613.01538,316.39781 L 603.44999,309.1167 L 591.35048,307.72472 L 580.17896,297.94518 L 570.86341,301.65712 L 560.61988,301.65712 L 556.40825,325.85613 L 537.31317,331.92373 L 518.25377,349.62684 L 528.9613,355.19475 L 521.50172,371.96987 L 512.22186,370.22098 L 514.00645,392.56401 L 509.86621,403.55707 L 509.86621,414.12183 L 518.111,425.15059 L 518.575,438.46361 L 527.31948,446.7441 L 527.60501,447.99331 z "
     id="path2455" />
  <path
     style="font-size:22px;fill:#ffffff;fill-rule:evenodd;stroke:#000000;stroke-width:1.1421361px;stroke-linecap:butt;stroke-linejoin:miter;stroke-opacity:1"
     d="M 657.02331,337.99132 L 672.51353,310.97267 L 683.61366,299.1587 L 686.82592,273.03233 L 639.60573,202.32697 L 639.7485,203.43341 L 628.57698,220.17284 L 634.64458,229.48839 L 633.71659,245.79952 L 611.83755,240.65991 L 602.522,261.61097 L 605.76995,276.06613 L 617.40546,285.84567 L 612.76553,303.0491 L 623.00907,308.18871 L 613.22953,316.57627 L 613.01538,316.39781 L 614.87135,319.36023 L 627.43484,340.16852 L 657.02331,337.99132 z "
     id="path2460" />
  <path
     style="font-size:22px;fill:#ffffff;fill-rule:evenodd;stroke:#000000;stroke-width:1.1421361px;stroke-linecap:butt;stroke-linejoin:miter;stroke-opacity:1"
     d="M 498.87315,559.85126 L 557.97869,566.20439 L 578.25161,582.94382 L 613.01538,564.4555 L 634.18058,563.1349 L 645.17364,528.79943 L 653.09721,524.80196 L 654.41781,512.9166 L 645.60195,509.84711 L 649.13543,484.29182 L 632.71722,476.47532 L 617.76238,475.79718 L 601.95093,486.57609 L 583.28414,478.68821 L 562.11894,455.34581 L 527.60501,447.99331 L 528.67576,452.70462 L 533.74399,462.34139 L 532.35201,471.08587 L 523.17923,481.18664 L 523.17923,489.5742 L 525.0709,491.07325 L 523.60753,499.35374 L 518.21808,506.56347 L 504.19122,512.30984 L 503.47738,534.29596 L 490.48559,549.03666 L 498.87315,559.85126 z "
     id="path2479" />
  <path
     style="font-size:22px;fill:#ffffff;fill-rule:evenodd;stroke:#000000;stroke-width:1.1421361px;stroke-linecap:butt;stroke-linejoin:miter;stroke-opacity:1"
     d="M 932.49226,361.0482 L 932.38518,361.44081 L 969.71876,383.21278 L 984.49514,378.18024 L 1004.6967,420.54635 L 1047.4911,421.72418 L 1056.8066,425.22197 L 1074.5097,408.83945 L 1059.3407,384.06938 L 1029.9664,366.36627 L 1014.7617,327.31949 L 1015.4042,325.14229 L 1013.798,316.07659 L 997.98662,297.69534 L 977.53525,302.29957 L 948.41078,353.90985 L 933.09902,361.54788 L 932.49226,361.0482 z "
     id="path2494" />
  <path
     style="font-size:22px;fill:#ffffff;fill-rule:evenodd;stroke:#000000;stroke-width:1.1421361px;stroke-linecap:butt;stroke-linejoin:miter;stroke-opacity:1"
     d="M 933.09902,361.86911 L 851.97166,465.62503 L 882.63088,498.53283 L 895.9439,544.28966 L 911.9695,530.08434 L 941.27243,529.19204 L 960.40321,566.95392 L 987.95724,589.18988 L 1048.3833,436.75041 L 1056.5211,425.11489 L 1047.4911,421.72418 L 1004.6967,420.54635 L 984.49514,378.18024 L 969.71876,383.21278 L 933.09902,361.86911 z "
     id="path2499" />
  <path
     style="font-size:22px;fill:#ffffff;fill-rule:evenodd;stroke:#000000;stroke-width:1.1421361px;stroke-linecap:butt;stroke-linejoin:miter;stroke-opacity:1"
     d="M 987.92155,589.15419 L 987.95724,589.58249 L 1017.5457,582.44414 L 1029.0741,573.59258 L 1040.9952,572.91444 L 1066.836,589.90372 L 1082.469,606.57176 L 1088.5723,629.02188 L 1110.3442,650.08001 L 1126.9409,651.36491 L 1153.3171,611.74707 L 1146.8212,592.18799 L 1152.8532,570.77294 L 1155.6371,548.89389 L 1150.5331,533.08244 L 1169.6283,471.15725 L 1177.5519,399.91652 L 1177.302,398.98853 L 1095.8177,444.88813 L 1076.5798,407.91147 L 1074.5454,408.91084 L 1074.5097,408.83945 L 1056.8066,425.22197 L 1056.5211,425.11489 L 1048.3833,436.75041 L 987.95724,589.18988 L 987.92155,589.15419 z "
     id="path2504" />
  <path
     style="font-size:22px;fill:#ffffff;fill-rule:evenodd;stroke:#000000;stroke-width:1.1421361px;stroke-linecap:butt;stroke-linejoin:miter;stroke-opacity:1"
     d="M 781.23061,920.69488 L 773.94949,893.17654 L 700.46017,858.94815 L 631.57509,925.47758 L 633.2526,928.22584 L 647.81483,959.27767 L 760.77923,925.44189 L 760.81492,925.47758 L 761.13615,925.12066 L 781.23061,920.69488 z "
     id="path2514" />
  <path
     style="font-size:22px;fill:#ffffff;fill-rule:evenodd;stroke:#000000;stroke-width:1.1421361px;stroke-linecap:butt;stroke-linejoin:miter;stroke-opacity:1"
     d="M 823.59672,898.102 L 764.99086,794.09624 L 700.3531,857.8774 L 700.85278,859.12661 L 773.94949,893.17654 L 781.23061,920.69488 L 816.24422,913.02116 L 824.45332,900.06505 L 823.59672,898.102 z "
     id="path2519" />
  <path
     style="font-size:22px;fill:#ffffff;fill-rule:evenodd;stroke:#000000;stroke-width:1.1421361px;stroke-linecap:butt;stroke-linejoin:miter;stroke-opacity:1"
     d="M 726.55084,832.03657 L 687.3613,732.45658 L 677.47468,733.63441 L 575.6818,775.6436 L 573.75445,784.85207 L 583.81952,799.12877 L 584.03367,801.37735 L 593.70614,813.7267 L 613.44368,808.944 L 605.44872,868.83477 L 604.41366,880.7915 L 631.57509,925.47758 L 700.46017,858.94815 L 700.85278,859.12661 L 700.3531,857.8774 L 726.55084,832.03657 z "
     id="path2524" />
  <path
     style="font-size:22px;fill:#ffffff;fill-rule:evenodd;stroke:#000000;stroke-width:1.1421361px;stroke-linecap:butt;stroke-linejoin:miter;stroke-opacity:1"
     d="M 676.43962,734.06271 L 661.30632,705.86622 L 636.67901,683.63026 L 557.80023,721.85613 L 558.05008,721.9632 L 558.58545,737.77465 L 559.04944,737.41773 L 575.86026,774.787 L 575.6818,775.6436 L 676.43962,734.06271 z "
     id="path2529" />
  <path
     style="font-size:22px;fill:#ffffff;fill-rule:evenodd;stroke:#000000;stroke-width:1.1421361px;stroke-linecap:butt;stroke-linejoin:miter;stroke-opacity:1"
     d="M 504.7266,618.92111 L 504.90506,618.67127 L 504.2983,618.92111 L 504.7266,618.92111 z "
     id="path2536" />
  <path
     style="font-size:22px;fill:#ffffff;fill-rule:evenodd;stroke:#000000;stroke-width:1.1421361px;stroke-linecap:butt;stroke-linejoin:miter;stroke-opacity:1"
     d="M 636.96454,683.8801 L 626.29271,654.8984 L 608.51821,649.83017 L 588.95913,657.86081 L 520.75219,618.13589 L 505.19059,618.42143 L 505.26197,618.5285 L 504.90506,618.67127 L 504.7266,618.92111 L 506.22565,618.99249 L 515.46981,638.73003 L 511.04404,660.0737 L 494.94706,674.56455 L 465.89397,674.85009 L 465.85828,675.20701 L 499.47991,687.05667 L 510.68712,700.51246 L 557.80023,721.85613 L 636.67901,683.63026 L 636.96454,683.8801 z "
     id="path2534" />
  <path
     style="font-size:22px;fill:#ffffff;fill-rule:evenodd;stroke:#000000;stroke-width:1.1421361px;stroke-linecap:butt;stroke-linejoin:miter;stroke-opacity:1"
     d="M 689.14588,466.48163 L 698.71127,481.82909 L 712.41691,483.54229 L 719.62664,474.29813 L 730.94093,466.41025 L 740.89893,429.71913 L 769.70217,413.58646 L 767.31082,365.25982 L 767.27513,365.33121 L 765.7047,335.99259 L 753.5695,318.36086 L 742.61213,320.71652 L 735.97346,329.71084 L 735.47378,329.21115 L 736.11623,330.35329 L 730.1914,335.45721 L 734.01042,365.58105 L 729.3348,382.14202 L 709.20465,380.10759 L 707.45575,396.49011 L 695.9987,439.21314 L 693.46459,456.05964 L 689.18158,466.48163 L 689.14588,466.48163 z "
     id="path2541" />
  <path
     style="font-size:22px;fill:#ffffff;fill-rule:evenodd;stroke:#000000;stroke-width:1.1421361px;stroke-linecap:butt;stroke-linejoin:miter;stroke-opacity:1"
     d="M 626.00717,654.82701 L 626.86378,654.43441 L 643.99582,659.89524 L 666.87423,655.18393 L 666.1247,634.66117 L 654.91749,618.02882 L 658.05837,567.59637 L 635.14426,560.13679 L 634.18058,563.1349 L 613.01538,564.4555 L 578.25161,582.94382 L 557.97869,566.20439 L 498.87315,559.85126 L 499.12299,560.20818 L 490.8425,590.08217 L 505.19059,618.42143 L 520.75219,618.13589 L 588.95913,657.86081 L 608.51821,649.83017 L 626.00717,654.82701 z "
     id="path2551" />
  <path
     style="font-size:22px;fill:#ffffff;fill-rule:evenodd;stroke:#000000;stroke-width:1.1421361px;stroke-linecap:butt;stroke-linejoin:miter;stroke-opacity:1"
     d="M 658.05837,567.63206 L 715.87901,580.33833 L 716.62853,557.70975 L 711.45323,543.25459 L 710.7037,500.24603 L 715.87901,487.64684 L 712.70244,483.18537 L 712.41691,483.54229 L 698.71127,481.82909 L 689.14588,466.48163 L 673.72705,472.94184 L 636.03656,472.58492 L 633.89505,476.54671 L 632.71722,476.47532 L 649.13543,484.29182 L 645.60195,509.84711 L 654.41781,512.9166 L 653.09721,524.80196 L 645.17364,528.79943 L 635.14426,560.13679 L 658.05837,567.59637 L 658.05837,567.63206 z "
     id="path2556" />
  <path
     style="font-size:22px;fill:#ffffff;fill-rule:evenodd;stroke:#000000;stroke-width:1.1421361px;stroke-linecap:butt;stroke-linejoin:miter;stroke-opacity:1"
     d="M 666.30316,655.29101 L 667.017,655.755 L 689.53849,642.44198 L 704.74318,641.79952 L 715.84332,629.41449 L 715.20086,623.38258 L 717.12822,620.56293 L 719.98356,593.57997 L 715.87901,579.87433 L 715.87901,580.33833 L 658.05837,567.63206 L 654.91749,618.02882 L 666.1247,634.66117 L 666.87423,655.18393 L 666.30316,655.29101 z "
     id="path2561" />
  <path
     style="font-size:22px;fill:#ffffff;fill-rule:evenodd;stroke:#000000;stroke-width:1.1421361px;stroke-linecap:butt;stroke-linejoin:miter;stroke-opacity:1"
     d="M 687.18284,732.49227 L 808.03511,674.60025 L 782.65828,619.34941 L 766.88252,618.81404 L 755.03286,607.53544 L 745.46747,607.53544 L 739.25711,602.46721 L 716.27162,621.81214 L 715.20086,623.38258 L 715.84332,629.41449 L 704.74318,641.79952 L 689.53849,642.44198 L 667.017,655.755 L 666.30316,655.29101 L 643.99582,659.89524 L 626.86378,654.43441 L 626.00717,654.82701 L 626.29271,654.8984 L 636.96454,683.8801 L 661.30632,705.86622 L 676.43962,734.06271 L 677.47468,733.63441 L 687.18284,732.49227 z "
     id="path2576" />
  <path
     style="font-size:22px;fill:#ffffff;fill-rule:evenodd;stroke:#000000;stroke-width:1.1421361px;stroke-linecap:butt;stroke-linejoin:miter;stroke-opacity:1"
     d="M 837.0882,872.33256 L 851.40059,819.97276 L 882.9521,800.23522 L 846.90343,747.83972 L 832.23412,751.23044 L 764.63394,777.71372 L 764.95517,794.13193 L 764.99086,794.09624 L 823.59672,898.102 L 823.06134,896.85279 L 836.41006,871.54734 L 837.0882,872.33256 z "
     id="path2581" />
  <path
     style="font-size:22px;fill:#ffffff;fill-rule:evenodd;stroke:#000000;stroke-width:1.1421361px;stroke-linecap:butt;stroke-linejoin:miter;stroke-opacity:1"
     d="M 832.59104,751.15906 L 825.98807,736.95374 L 800.57554,727.85234 L 774.23502,690.76861 L 687.18284,732.49227 L 687.3613,732.45658 L 726.55084,832.03657 L 764.95517,794.13193 L 764.63394,777.71372 L 832.23412,751.23044 L 832.59104,751.15906 z "
     id="path2586" />
  <path
     style="font-size:22px;fill:#ffffff;fill-rule:evenodd;stroke:#000000;stroke-width:1.1421361px;stroke-linecap:butt;stroke-linejoin:miter;stroke-opacity:1"
     d="M 783.97887,622.20475 C 784.25439,621.9995 784.17805,621.95931 784.47856,621.74076 C 786.94341,619.94814 790.19055,617.75292 793.43719,615.60178 C 799.93046,611.29949 806.39329,607.24991 806.39329,607.24991 L 792.68766,574.41349 L 785.69208,580.76663 L 779.30325,567.70345 L 763.38473,553.99781 L 750.964,558.42359 L 751.3923,583.33643 L 741.22015,589.5468 L 739.86387,602.9669 L 745.46747,607.53544 L 755.03286,607.53544 L 766.88252,618.81404 L 782.65828,619.34941 L 783.97887,622.20475 z "
     id="path2596" />
  <path
     style="font-size:22px;fill:#ffffff;fill-rule:evenodd;stroke:#000000;stroke-width:1.1421361px;stroke-linecap:butt;stroke-linejoin:miter;stroke-opacity:1"
     d="M 807.82096,674.13625 L 896.44359,636.55284 L 888.73417,629.16464 L 893.08856,612.0326 L 831.0206,608.10651 L 831.0206,608.42774 L 805.96499,607.49975 C 805.5694,607.74786 799.7218,611.43774 793.43719,615.60178 C 790.19055,617.75292 786.94341,619.94814 784.47856,621.74076 C 784.17805,621.95931 784.25439,621.9995 783.97887,622.20475 L 807.82096,674.13625 z "
     id="path2606" />
  <path
     style="font-size:22px;fill:#ffffff;fill-rule:evenodd;stroke:#000000;stroke-width:1.1421361px;stroke-linecap:butt;stroke-linejoin:miter;stroke-opacity:1"
     d="M 940.66567,694.65901 L 940.62998,695.40854 L 937.4891,699.08479 L 935.49036,740.62999 L 949.73137,726.99574 L 969.0763,722.14166 L 989.56337,709.61386 L 1005.232,709.04279 L 1058.4484,734.955 L 1085.1815,737.23927 L 1130.4387,734.5267 L 1130.0461,732.8135 L 1130.0461,709.54247 L 1117.9466,693.23134 L 1118.8746,685.30777 L 1129.5821,674.13625 L 1125.4062,653.64919 L 1126.9409,651.36491 L 1111.9504,650.22278 L 1111.8433,650.61539 L 1053.987,649.15203 L 1031.3584,673.95779 L 974.21592,683.30903 L 941.16535,695.51561 L 940.66567,694.65901 z "
     id="path2629" />
  <path
     style="font-size:22px;fill:#ffffff;fill-rule:evenodd;stroke:#000000;stroke-width:1.1421361px;stroke-linecap:butt;stroke-linejoin:miter;stroke-opacity:1"
     d="M 938.91677,880.57735 L 938.66693,879.82783 C 937.27548,877.50872 883.9576,802.53784 882.5238,800.52075 L 851.40059,819.97276 L 837.0882,872.33256 L 906.25882,953.24576 L 933.63439,901.63549 L 938.59555,880.18474 L 938.91677,880.57735 z "
     id="path2634" />
  <path
     style="font-size:22px;fill:#ffffff;fill-rule:evenodd;stroke:#000000;stroke-width:1.1421361px;stroke-linecap:butt;stroke-linejoin:miter;stroke-opacity:1"
     d="M 1062.7671,890.24982 L 1062.7314,889.78583 L 936.41835,739.77339 L 936.02574,740.1303 L 911.57689,786.06559 L 882.66657,799.80692 L 882.9521,800.23522 L 882.5238,800.52075 C 883.9576,802.53784 937.27548,877.50872 938.66693,879.82783 L 938.91677,880.57735 L 973.78762,923.05054 L 991.38365,910.41566 L 1062.7671,890.24982 z "
     id="path2649" />
  <path
     style="font-size:22px;fill:#ffffff;fill-rule:evenodd;stroke:#000000;stroke-width:1.1421361px;stroke-linecap:butt;stroke-linejoin:miter;stroke-opacity:1"
     d="M 1005.232,709.04279 L 989.56337,709.61386 L 969.0763,722.14166 L 949.73137,726.99574 L 936.41835,739.77339 L 1062.7314,889.78583 L 1062.7671,890.24982 L 1063.3739,890.07136 L 1104.6336,948.35599 L 1179.9432,989.04459 L 1210.1741,992.79222 L 1235.7294,953.03161 L 1241.333,935.36419 L 1222.2379,895.78204 L 1210.6024,899.95797 L 1200.8229,841.31642 L 1156.1368,785.88713 L 1135.15,756.08452 L 1130.4387,734.5267 L 1085.1815,737.23927 L 1058.4484,734.955 L 1005.232,709.04279 z "
     id="path2644" />
  <path
     style="font-size:22px;fill:#ffffff;fill-rule:evenodd;stroke:#000000;stroke-width:1.1421361px;stroke-linecap:butt;stroke-linejoin:miter;stroke-opacity:1"
     d="M 882.66657,799.80692 L 911.57689,786.06559 L 936.02574,740.1303 L 935.49036,740.62999 L 936.23989,724.96131 L 929.42277,726.99574 L 921.24936,719.17925 L 917.53741,706.90128 L 901.1549,698.37095 L 882.20258,697.62143 L 862.14381,688.34157 L 829.80708,688.34157 L 807.57112,674.8144 L 774.23502,690.76861 L 800.57554,727.85234 L 825.98807,736.95374 L 832.59104,751.15906 L 846.90343,747.83972 L 882.66657,799.80692 z "
     id="path2639" />
  <path
     style="font-size:22px;fill:#ffffff;fill-rule:evenodd;stroke:#000000;stroke-width:1.1421361px;stroke-linecap:butt;stroke-linejoin:miter;stroke-opacity:1"
     d="M 807.57112,674.8144 L 829.80708,688.34157 L 862.14381,688.34157 L 882.20258,697.62143 L 901.1549,698.37095 L 917.53741,706.90128 L 921.24936,719.17925 L 929.42277,726.99574 L 936.23989,724.96131 L 937.4891,699.08479 L 940.62998,695.40854 L 940.66567,694.65901 L 923.92624,666.78375 L 906.3302,653.47073 L 896.05098,636.6956 L 807.82096,674.13625 L 808.03511,674.60025 L 807.57112,674.8144 z "
     id="path2624" />
  <path
     style="font-size:22px;fill:#ffffff;fill-rule:evenodd;stroke:#000000;stroke-width:1.1421361px;stroke-linecap:butt;stroke-linejoin:miter;stroke-opacity:1"
     d="M 896.05098,636.6956 L 906.3302,653.47073 L 923.92624,666.78375 L 941.16535,695.51561 L 974.21592,683.30903 L 1031.3584,673.95779 L 1053.987,649.15203 L 1111.8433,650.61539 L 1111.9504,650.22278 L 1110.3442,650.08001 L 1088.5723,629.02188 L 1082.469,606.57176 L 1066.836,589.90372 L 1040.9952,572.91444 L 1029.0741,573.59258 L 1017.5457,582.44414 L 989.02799,589.33265 L 989.06369,589.68957 L 895.90821,636.01746 L 896.44359,636.55284 L 896.05098,636.6956 z "
     id="path2619" />
  <path
     style="font-size:22px;fill:#ffffff;fill-rule:evenodd;stroke:#000000;stroke-width:1.1421361px;stroke-linecap:butt;stroke-linejoin:miter;stroke-opacity:1"
     d="M 895.90821,636.01746 L 989.06369,589.68957 L 989.02799,589.33265 L 987.95724,589.58249 L 987.92155,589.15419 L 960.40321,566.95392 L 941.27243,529.19204 L 911.9695,530.08434 L 896.30082,543.96843 L 896.22944,544.50381 L 892.26765,546.28839 L 892.26765,601.82476 L 888.62709,611.74707 L 893.08856,612.0326 L 888.73417,629.16464 L 895.90821,636.01746 z "
     id="path2611" />
  <path
     style="font-size:22px;fill:#ffffff;fill-rule:evenodd;stroke:#000000;stroke-width:1.1421361px;stroke-linecap:butt;stroke-linejoin:miter;stroke-opacity:1"
     d="M 888.62709,611.74707 L 892.26765,601.82476 L 892.26765,546.28839 L 896.22944,544.50381 L 896.30082,543.96843 L 895.9439,544.28966 L 888.27018,517.94914 L 866.64097,524.12381 L 843.72687,567.16807 L 844.04809,570.55879 L 831.66305,589.08281 L 831.0206,608.10651 L 888.62709,611.74707 z "
     id="path2601" />
  <path
     style="font-size:22px;fill:#ffffff;fill-rule:evenodd;stroke:#000000;stroke-width:1.1421361px;stroke-linecap:butt;stroke-linejoin:miter;stroke-opacity:1"
     d="M 805.96499,607.49975 L 831.0206,608.42774 L 831.66305,589.08281 L 844.04809,570.55879 L 843.72687,567.16807 L 843.51272,567.52499 L 801.82475,532.58276 L 799.0051,519.05559 L 798.50542,518.41313 L 798.5768,519.12697 L 792.58059,531.65477 L 774.55625,531.65477 L 758.56634,524.12381 L 750.92831,524.12381 L 750.42862,527.80007 L 750.964,558.42359 L 763.38473,553.99781 L 779.30325,567.70345 L 785.69208,580.76663 L 792.68766,574.41349 L 806.39329,607.24991 C 806.39329,607.24991 805.97813,607.49152 805.96499,607.49975 z "
     id="path2591" />
  <path
     style="font-size:22px;fill:#ffffff;fill-rule:evenodd;stroke:#000000;stroke-width:1.1421361px;stroke-linecap:butt;stroke-linejoin:miter;stroke-opacity:1"
     d="M 739.86387,602.9669 L 741.22015,589.5468 L 751.3923,583.33643 L 750.42862,527.80007 L 750.92831,524.12381 L 750.57139,524.12381 L 750.57139,520.62602 L 740.54201,503.63675 C 740.54201,503.63675 721.42178,504.5679 710.77509,505.20719 L 711.45323,543.25459 L 716.62853,557.70975 L 715.87901,579.87433 L 719.98356,593.57997 L 717.12822,620.56293 L 716.27162,621.81214 L 739.25711,602.46721 L 739.86387,602.9669 z "
     id="path2571" />
  <path
     style="font-size:22px;fill:#ffffff;fill-rule:evenodd;stroke:#000000;stroke-width:1.1421361px;stroke-linecap:butt;stroke-linejoin:miter;stroke-opacity:1"
     d="M 798.50542,518.41313 L 799.0051,519.05559 L 801.82475,532.58276 L 843.51272,567.52499 L 866.64097,524.12381 L 888.27018,517.94914 L 882.63088,498.53283 L 851.97166,465.62503 L 852.47135,464.98258 L 827.30866,446.85117 L 818.63556,449.13544 L 798.04142,431.28957 L 797.47036,430.07605 L 796.07838,452.63324 L 787.54805,467.62377 L 794.57932,485.61241 L 798.50542,518.41313 z "
     id="path2566" />
  <path
     style="font-size:22px;fill:#ffffff;fill-rule:evenodd;stroke:#000000;stroke-width:1.1421361px;stroke-linecap:butt;stroke-linejoin:miter;stroke-opacity:1"
     d="M 710.77509,505.20719 C 721.42178,504.5679 740.54201,503.63675 740.54201,503.63675 L 750.57139,520.62602 L 750.57139,524.12381 L 758.56634,524.12381 L 774.55625,531.65477 L 792.58059,531.65477 L 798.5768,519.12697 L 794.57932,485.61241 L 787.54805,467.62377 L 796.07838,452.63324 L 797.47036,430.07605 L 794.86486,424.43675 L 780.65954,413.47938 L 769.70217,413.47938 L 769.70217,413.58646 L 740.89893,429.71913 L 730.94093,466.41025 L 719.62664,474.29813 L 712.70244,483.18537 L 715.87901,487.64684 L 710.7037,500.24603 L 710.77509,505.20719 z "
     id="path2546" />
  <path
     style="font-size:22px;fill:#ffffff;fill-rule:evenodd;stroke:#000000;stroke-width:1.1421361px;stroke-linecap:butt;stroke-linejoin:miter;stroke-opacity:1"
     d="M 769.70217,413.47938 L 780.65954,413.47938 L 794.86486,424.43675 L 798.04142,431.28957 L 818.63556,449.13544 L 827.30866,446.85117 L 852.47135,464.98258 L 933.09902,361.86911 L 932.38518,361.44081 L 932.49226,361.0482 L 921.35643,351.83972 L 911.64827,331.92373 L 874.85008,316.61196 L 865.6416,297.69534 L 849.83016,280.31345 L 849.75877,280.17068 L 830.30677,286.27397 L 832.26981,307.7961 L 812.28243,308.58132 L 796.25684,319.53869 L 767.31082,365.25982 L 769.70217,413.47938 z "
     id="path2509" />
  <path
     style="font-size:22px;fill:#ffffff;fill-rule:evenodd;stroke:#000000;stroke-width:1.1421361px;stroke-linecap:butt;stroke-linejoin:miter;stroke-opacity:1"
     d="M 735.47378,329.21115 L 735.97346,329.71084 L 742.61213,320.71652 L 753.5695,318.36086 L 765.7047,335.99259 L 767.27513,365.33121 L 796.25684,319.53869 L 812.28243,308.58132 L 832.26981,307.7961 L 830.30677,286.27397 L 849.75877,280.17068 L 835.01808,255.79321 L 834.4827,228.20349 L 840.122,211.35698 L 822.74012,208.53733 L 822.66873,208.85856 L 811.35445,220.17284 L 797.79158,222.99249 L 788.1905,207.71642 L 771.77229,209.42963 L 767.8462,215.63999 L 722.16076,234.09263 L 734.43872,264.60908 L 734.43872,279.02855 L 729.7631,291.7705 L 734.43872,327.39087 L 735.47378,329.21115 z "
     id="path2489" />
  <path
     style="font-size:22px;fill:#ffffff;fill-rule:evenodd;stroke:#000000;stroke-width:1.1421361px;stroke-linecap:butt;stroke-linejoin:miter;stroke-opacity:1"
     d="M 1015.4042,325.14229 L 1014.7617,327.31949 L 1029.9664,366.36627 L 1059.3407,384.06938 L 1074.5454,408.91084 L 1076.5798,407.91147 L 1095.8177,444.88813 L 1177.302,398.98853 L 1169.6283,371.04189 L 1169.1642,346.80719 L 1154.2451,301.65712 L 1105.3831,325.39214 L 1099.7795,285.34599 L 1092.1771,271.0336 L 1068.9775,276.74428 L 1054.7008,294.12616 L 1052.6307,312.50741 L 1038.8537,312.50741 L 1035.2845,322.21557 L 1028.6458,317.61133 L 1015.8682,327.85487 L 1015.4042,325.14229 z "
     id="path2484" />
  <path
     style="font-size:22px;fill:#ffffff;fill-rule:evenodd;stroke:#000000;stroke-width:1.1421361px;stroke-linecap:butt;stroke-linejoin:miter;stroke-opacity:1"
     d="M 822.74012,208.53733 L 840.122,211.35698 L 834.4827,228.20349 L 835.01808,255.79321 L 849.83016,280.31345 L 865.6416,297.69534 L 874.85008,316.61196 L 911.64827,331.92373 L 921.35643,351.83972 L 933.09902,361.54788 L 948.41078,353.90985 L 960.60036,332.30917 L 977.53525,302.29957 L 997.98662,297.69534 L 1013.798,316.07659 L 1015.8682,327.85487 L 1028.6458,317.61133 L 1035.2845,322.21557 L 1038.8537,312.50741 L 1052.6307,312.50741 L 1054.7008,294.12616 L 1068.9775,276.74428 L 1092.1771,271.0336 L 1091.8559,270.46253 L 1092.3199,245.33553 L 1052.7377,207.60935 L 1029.9307,204.82539 L 1015.0473,211.32129 L 994.09622,204.82539 L 993.63223,194.11787 L 980.10506,188.97825 L 983.85269,174.09479 L 952.19411,131.26469 L 897.6928,130.30101 L 889.34093,135.90462 L 877.66972,127.51705 L 857.46819,126.58907 L 853.79194,148.36104 L 844.15517,169.84747 L 829.45017,180.01962 L 822.74012,208.53733 z "
     id="path2474" />
  <path
     style="font-size:22px;fill:#ffffff;fill-rule:evenodd;stroke:#000000;stroke-width:1.1421361px;stroke-linecap:butt;stroke-linejoin:miter;stroke-opacity:1"
     d="M 722.16076,234.09263 L 767.8462,215.63999 L 771.77229,209.42963 L 788.1905,207.71642 L 797.79158,222.99249 L 811.35445,220.17284 L 822.66873,208.85856 L 829.45017,180.01962 L 844.15517,169.84747 L 853.79194,148.36104 L 857.46819,126.58907 L 826.45206,125.19709 L 811.10461,119.12949 L 797.61312,123.34112 L 755.711,116.80953 L 718.44881,120.52147 L 717.87775,120.45009 L 713.20213,137.7249 L 705.13579,146.21953 L 710.23971,160.2107 L 716.16454,166.99213 L 722.12506,234.05694 L 722.16076,234.09263 z "
     id="path2465" />
  <path
     style="font-size:22px;fill:#ffffff;fill-rule:evenodd;stroke:#000000;stroke-width:1.1421361px;stroke-linecap:butt;stroke-linejoin:miter;stroke-opacity:1"
     d="M 709.20465,380.10759 L 729.3348,382.14202 L 734.01042,365.58105 L 730.1914,335.45721 L 736.11623,330.35329 L 734.43872,327.39087 L 729.7631,291.7705 L 734.43872,279.02855 L 734.43872,264.60908 L 722.12506,234.05694 L 716.16454,166.99213 L 710.23971,160.2107 L 705.13579,146.21953 L 713.20213,137.7249 L 717.87775,120.45009 L 688.18221,116.80953 L 667.69514,136.36861 L 648.13606,146.14815 L 636.50055,177.34274 L 639.60573,202.32697 L 686.82592,273.03233 L 683.61366,299.1587 L 672.51353,310.97267 L 657.02331,337.99132 L 657.23746,337.99132 L 661.16355,366.36627 L 709.27603,379.28668 L 709.20465,380.10759 z "
     id="path2220" />
  <path
     style="font-size:22px;fill:none;fill-rule:evenodd;stroke:#000000;stroke-width:3.42640829;stroke-linecap:butt;stroke-linejoin:miter;stroke-miterlimit:4;stroke-opacity:1"
     d="M 209.21232,1911.6059 L 209.21232,1942.3359 L 184.5351,1986.1031 L 185.46629,2036.8543 L 225.50855,2054.5473 L 245.52974,2069.4467 L 243.66726,2048.4945 L 257.63547,2041.0447 L 266.482,2006.5898 L 286.50319,2021.9548 L 294.88407,1988.8967 L 306.05873,2005.6586 L 333.06396,1988.8967 L 333.06396,1973.5317 L 368.45019,1972.6004 L 382.88405,1983.3094 L 396.38662,1968.41 L 404.30196,1979.5845 L 439.22254,1979.1188 L 421.52949,1955.8385 L 439.22254,1933.0238 L 453.19075,1939.0765 L 475.07431,1915.7962 L 490.43935,1922.3148 L 505.33886,1910.6746 L 493.69867,1908.8122 L 493.23302,1894.8439 L 483.92084,1890.6535 L 490.43935,1872.9604 L 498.3547,1885.0662 L 504.40768,1879.4789 L 509.06371,1889.2567 L 537.93143,1885.9972 L 548.17479,1866.9075 L 561.67735,1857.5952 L 561.67735,1866.4419 L 578.43923,1860.3889 L 597.99477,1868.7699 L 608.23813,1855.7328 L 625.93119,1852.4735 L 640.8307,1855.7328 L 658.52375,1836.6429 L 694.84117,1850.6111 L 700.89403,1832.9181 L 710.67186,1850.1455 L 743.72996,1833.8492 L 746.05798,1817.5529 L 770.26966,1807.3095 L 749.78294,1792.4101 L 748.38611,1776.1139 L 762.81985,1781.2356 L 833.12667,1728.6218 L 821.95212,1717.4473 L 843.37003,1713.2568 L 842.43885,1695.5637 L 857.80389,1713.2568 L 871.30645,1678.3362 L 892.72447,1669.4897 L 892.72447,1656.4527 L 911.81436,1640.1564 L 899.70852,1621.0665 L 889.46516,1628.9818 L 888.53397,1610.3575 L 904.36467,1604.7702 L 893.19012,1594.0612 L 910.41753,1577.2993 L 895.05249,1578.2306 L 886.67161,1561.4687 L 902.96783,1558.6751 L 896.44932,1536.3259 L 909.48635,1536.7915 L 948.59743,1516.7703 L 954.65029,1505.5958 C 954.65029,1505.5958 966.29049,1519.0983 968.15297,1517.236 C 970.01533,1515.3735 990.50206,1508.3894 990.50206,1508.3894 L 1007.7296,1518.1672 L 1021.6978,1507.4581 L 1025.4226,1473.4689 L 998.88305,1457.6382 L 1015.1792,1444.6011 L 1029.1475,1427.3736 L 1017.0417,1416.6647 L 1013.3169,1393.3843 L 996.08939,1387.3314 L 1010.9888,1373.3631 L 1000.7454,1352.4109 L 1009.5919,1312.3686 L 1031.4755,1335.1833 L 1026.3538,1314.6966 L 1040.3221,1316.559 L 1054.2903,1306.3156 L 1056.1527,1289.5537 L 1040.3221,1276.0512 L 1043.5813,1233.6809 L 1053.8247,1224.3687 L 1062.6712,1230.4216 L 1068.7242,1218.7814 L 1085.9516,1222.0407 L 1103.6447,1204.8132 L 1099.9199,1182.464 L 1106.4383,1168.4958 L 1124.1314,1178.7392 L 1124.1314,1197.8291 L 1138.0996,1189.4481 L 1134.8403,1145.2154 L 1153.9303,1147.5434 L 1154.8615,1132.644 L 1166.9673,1122.8662 L 1155.7929,1110.2948 L 1165.1049,1103.3107 L 1171.6234,1061.8716 L 1179.0731,1072.115 L 1192.5757,1061.406 L 1181.8667,1039.5224 L 1178.1419,1023.6918 L 1193.5069,1018.5701 L 1235.4117,953.38506 L 1240.999,935.69196 L 1221.909,896.11532 L 1210.2688,900.30578 L 1200.4911,841.6392 L 1155.7929,786.2319 L 1134.8403,756.43301 L 1129.7187,733.15262 L 1129.7187,709.87223 L 1117.6129,693.57597 L 1118.5441,685.66063 L 1129.2531,674.48604 L 1125.0626,653.99931 L 1152.9991,612.09461 L 1146.4805,592.53909 L 1152.5335,571.12114 L 1155.3271,549.23757 L 1150.2055,533.4069 L 1169.2954,471.48107 L 1177.2107,400.24309 L 1169.2954,371.37541 L 1168.8297,347.16381 L 1153.9303,301.99986 L 1105.0415,325.74586 L 1099.4543,285.70359 L 1091.5389,270.80414 L 1092.0046,245.66133 L 1052.4278,207.9471 L 1029.6131,205.15346 L 1014.7136,211.67197 L 993.76137,205.15346 L 993.29572,194.44448 L 979.79316,189.3228 L 983.51801,174.42335 L 951.85663,131.5874 L 897.3805,130.65621 L 888.99962,136.24354 L 877.35943,127.86255 L 826.14251,125.53453 L 810.77746,119.48167 L 797.2749,123.67217 L 755.37016,117.15365 L 718.12156,120.8785 L 687.85712,117.15365 L 667.37028,136.70908 L 647.81474,146.48691 L 636.17466,177.68261 L 639.43386,203.75664 L 628.25932,220.51851 L 634.31218,229.83067 L 633.381,246.12693 L 611.49744,241.00525 L 602.18526,261.9576 L 605.44446,276.39144 L 617.08466,286.16919 L 612.42863,303.39668 L 622.67199,308.51837 L 612.89427,316.89931 L 603.11645,309.44958 L 591.0106,308.05276 L 579.83606,298.275 L 570.52388,301.99986 L 560.28052,301.99986 L 556.09014,326.21146 L 537.00013,332.26437 L 517.91024,349.95746 L 528.61925,355.54475 L 521.16955,372.30663 L 511.39173,370.4442 L 508.13253,359.73522 L 475.53996,353.21671 L 428.048,308.51837 L 425.71987,293.15331 L 399.18028,268.94172 L 381.95276,263.35442 L 354.94752,203.75664 L 325.14862,175.82017 L 299.07456,160.45512 L 285.10635,172.09531 L 283.24387,186.52915 L 278.58784,198.63496 L 285.572,207.4815 L 277.65666,214.46561 L 275.32853,233.08991 L 268.81013,239.60843 L 261.36032,269.40732 L 248.32329,285.23799 L 252.97944,302.93108 L 237.14874,317.36492 L 231.56141,333.66119 L 218.52439,338.78287 L 208.74667,355.07914 L 186.39747,362.06326 L 175.22292,391.39655 L 161.25471,409.08964 L 150.5457,440.28535 L 94.672745,457.51284 L 94.672745,489.17416 L 87.688697,496.62388 L 97.000875,515.24821 L 92.810378,523.62914 L 76.514038,531.54448 L 73.254838,550.16879 L 70.926822,561.34337 L 44.38712,596.26395 L 47.646433,609.30097 L 31.815742,615.81947 L 25.762877,624.20042 L 32.281391,629.7877 L 32.281391,640.03108 L 28.556428,647.4808 L 18.313066,646.08397 L 9.0010021,657.25857 L 15.519516,670.29558 L 12.725851,699.16325 L 24.83158,712.66588 L 22.503564,729.42776 L 31.350093,734.54944 L 18.313066,737.8087 L 15.98505,750.84571 L 29.022077,777.85096 L 47.180785,789.02555 L 39.265439,802.06257 L 58.820979,815.09958 L 52.302465,822.0837 L 54.630482,837.91434 L 55.561779,863.52277 L 36.006239,896.11532 L 37.868606,914.73961 L 55.561779,916.60205 L 46.715136,919.86131 L 41.593455,958.50675 L 59.752162,971.54376 L 47.646433,986.90882 L 43.921585,1002.2739 L 47.646433,1024.623 L 60.68346,1033.9352 L 75.582854,1036.7288 L 79.307703,1074.443 L 106.77859,1084.6864 L 121.21245,1111.6916 L 118.88443,1134.5064 L 111.43462,1151.2683 L 116.5563,1164.7709 L 108.64095,1181.0672 L 117.02195,1196.8979 L 109.57225,1218.3158 L 126.33413,1235.5433 L 152.40818,1249.0459 L 192.91598,1249.0459 L 220.38687,1260.6861 L 259.96348,1252.7708 L 275.32853,1231.8184 L 315.37079,1216.919 L 330.2703,1226.6968 L 317.23327,1239.2682 L 318.6301,1276.0512 L 300.4714,1323.5431 L 303.26506,1366.8446 L 286.50319,1401.7652 L 297.67773,1457.6382 L 306.98991,1480.4529 L 294.88407,1512.5799 L 294.41853,1549.3629 L 309.31793,1614.0824 L 290.22803,1642.9501 L 293.95288,1691.3732 L 288.8312,1710.4631 L 274.39734,1725.8282 L 266.01646,1743.5213 L 262.29161,1785.8916 L 245.06409,1813.3625 L 225.50855,1837.1084 L 218.05885,1886.463 L 209.21232,1911.6059 z "
     id="path2222" />
</svg>
